PathFileType	4	(X/Y/Z)	65_1_16_p1_0-316_filt_butterworth.trc
DataRate	CameraRate	NumFrames	NumMarkers	Units	OrigDataRate	OrigDataStartFrame	OrigNumFrames
39.0	39.0	7	27	m	39.0	276	316
Frame#	Time	RHip			RKnee			RAnkle			RBigToe			RSmallToe			RHeel			LHip			LKnee			LAnkle			LBigToe			LSmallToe			LHeel			Neck			Head			Nose			RShoulder			RElbow			RWrist			RThumb			RIndex			RPinky			LShoulder			LElbow			LWrist			LThumb			LIndex			LPinky			
		X1	Y1	Z1	X2	Y2	Z2	X3	Y3	Z3	X4	Y4	Z4	X5	Y5	Z5	X6	Y6	Z6	X7	Y7	Z7	X8	Y8	Z8	X9	Y9	Z9	X10	Y10	Z10	X11	Y11	Z11	X12	Y12	Z12	X13	Y13	Z13	X14	Y14	Z14	X15	Y15	Z15	X16	Y16	Z16	X17	Y17	Z17	X18	Y18	Z18	X19	Y19	Z19	X20	Y20	Z20	X21	Y21	Z21	X22	Y22	Z22	X23	Y23	Z23	X24	Y24	Z24	X25	Y25	Z25	X26	Y26	Z26	X27	Y27	Z27	
276	7.076923076923077	0.41607555043066613	0.6990930401313435	0.2785198887814196	0.3875863401244589	0.8907494366233607	0.7041352892765866	0.3269913699709509	1.0325722179924912	1.111933187857906	0.27388339086747715	0.8140555419425439	1.2041383988894756	0.3629407793695879	0.8245421826760915	1.1900414706127762	0.28918724018724473	1.1470544480624059	1.172556677389234	0.19236233759125482	0.731680102471333	0.25836749771727263	0.15100735082078778	0.8793278449390518	0.682367219309685	0.12084273264457224	1.0148614216376166	1.0880469023487087	0.12401930284794732	0.8099505392204996	1.1628216231817592	0.058664950971496765	0.8843680519583406	1.1611321720671506	0.14218864239390194	1.099344480496792	1.1307252055358097	0.3810202331671751	0.5127387018920254	-0.36821038125741734	0.41513578550441677	0.37967778148463943	-0.62423772783475	0.3896565761849368	0.3545558880881416	-0.4442246324004365	0.541184656604845	0.5606516281802663	-0.24365782545730585	0.5052065634708837	0.5724203165828738	0.0665055500520657	0.37730480146491846	0.5217746685304899	0.2754065944291773	0.32567589818084125	0.48472327183510017	0.36235069002269493	0.2992957034260165	0.5466400504634308	0.37995516560609294	0.2833874617800121	0.5742262128876268	0.37172774587782365	0.20031634837100185	0.538452101371078	-0.29159327209665425	0.13829773171146473	0.5722557563467856	0.006968402162441312	0.23431860350368094	0.519597807853202	0.2571566073169226	0.3358456811059002	0.4915547535604141	0.322230987877539	0.3229231860194123	0.5381420348472675	0.3566176344632045	0.2763132250543485	0.5479384293168672	0.37990870142880917
277	7.102564102564102	0.4161622852044231	0.6983012958560736	0.2785093024536576	0.38758865560490796	0.8906355580224208	0.7041662798639481	0.32398521954867227	1.0259211724148818	1.1101584187745361	0.27368854871406734	0.814288808449033	1.2042384105382982	0.3622906042262309	0.8252078949502354	1.1921474080602257	0.28999366536258914	1.13384195510916	1.1695081616862477	0.1923459433757137	0.7316710249848427	0.25932565826917714	0.15102428267566673	0.8793020327925404	0.6824002165954086	0.12087918802969216	1.0147588753766832	1.088052885582607	0.12399861679529234	0.8099456437123785	1.162018314746419	0.058722601464448625	0.8842291771528447	1.1610777228431943	0.1424744575555845	1.1000462626152316	1.132995120923687	0.3810015705450855	0.5127413069271402	-0.36820754191930355	0.4151324604881208	0.3796944728022009	-0.6242422708955828	0.38961810967676547	0.3545531904663379	-0.4442194176406491	0.5411993151318825	0.5606233848206565	-0.2435550557642151	0.5052711595811656	0.5726676982447796	0.06654651186127028	0.3773545483430456	0.5217685888321992	0.2753809653189737	0.324980675585932	0.48799891814128327	0.3608243054192927	0.2991187796773329	0.5471361457361122	0.3796573429269144	0.2843618867057197	0.5779365335145251	0.37195964372291723	0.20152782700036176	0.5392114729600539	-0.29155524557203827	0.13817717631410992	0.5722650701224269	0.007107964762519559	0.23432967539790472	0.5197488952857072	0.25715639299164117	0.3358075338282678	0.4905040065516794	0.3208259500690815	0.32297359065141884	0.5386004165012502	0.3564862399170217	0.2763108061387371	0.5479444895973455	0.3799072371509118
278	7.128205128205129	0.4159481350757265	0.6977522000612699	0.2785788251824187	0.3875758849943086	0.8905140391702666	0.7041827664318022	0.3215670188196882	1.0213039113135622	1.108736991991592	0.27366628526146	0.8135305700408129	1.204047527420857	0.3619574429491046	0.82584609886063	1.1933717276395273	0.2904124748372072	1.1381978428230575	1.1742581820749256	0.1923370009593157	0.7315473658860212	0.2587943083626756	0.15103439540988828	0.879380830389306	0.6823232201311671	0.12088043357288805	1.014771305859579	1.0880796651788378	0.12396446001330168	0.8098800145086169	1.1619977818700173	0.05871873036890113	0.8841044694419697	1.1610410437839895	0.14249274957642497	1.1003378189167692	1.1343929180536219	0.38099645779507524	0.512750700376412	-0.36822160306544044	0.41514038929248165	0.37971566754466085	-0.6242478933483433	0.38963718249426216	0.3545595545289137	-0.4442398957790338	0.5411962250419008	0.5606274365992576	-0.24355799690210336	0.5053506879421685	0.5726130217555513	0.06665705341977148	0.37736459572489195	0.5218710635564439	0.27540147592766745	0.3258359123337689	0.48767098861761	0.3595733008914853	0.29890369261884925	0.5473952026526157	0.37953444632462746	0.28439458487515357	0.5777559017581633	0.3719835960435083	0.20136784243968764	0.538667531753889	-0.29145937368709557	0.13802422251159396	0.5722386887784343	0.007133550271089136	0.2341809018733652	0.5196302770222077	0.2571558550660994	0.33582670995661223	0.49082689171190563	0.3181531827150683	0.3231292377594696	0.5389494040213054	0.356680083517897	0.27634777775705616	0.5479725345755088	0.3802906215449706
279	7.153846153846154	0.4158845261405757	0.7021608649528331	0.27870864063680306	0.3875318646566404	0.890494934899117	0.7041259027494084	0.320720526015709	1.0299845958422877	1.110767367188625	0.2746830917159423	0.8134262006097426	1.204088052501652	0.3620050630895686	0.8260072617440737	1.193344428863544	0.29050178081362704	1.155515102783411	1.1799597315290717	0.19234985734344281	0.7315950248757735	0.25845148101277915	0.15102448140611538	0.8794676559067045	0.6823032724637041	0.12085481149294017	1.01490211353717	1.0881165587873673	0.12413237347974732	0.8100347637641124	1.162171784384395	0.058680696998882766	0.8841925043475347	1.1610868887525583	0.1423321229112304	1.1006139799035008	1.1344672810789034	0.3809868006838426	0.5127435771793956	-0.368242452664466	0.4151470578642078	0.37972353298004885	-0.6242538263789594	0.3896553291818072	0.35453583961897484	-0.44424633387408596	0.5411696128884748	0.5606356032576476	-0.2436093947706396	0.5054288341301172	0.5724498033698698	0.0667480470985273	0.3773303669926483	0.521890744528738	0.27542744360591354	0.3262991396994616	0.4874715516024847	0.3607491820866474	0.29897711254140374	0.54738319053937	0.3795843830870282	0.28432284270403124	0.57716162195111	0.3719644680175428	0.2011656598301157	0.5385075416068307	-0.29147407022959604	0.13805491209517373	0.5723108900082222	0.006380077243129412	0.23429280089233212	0.5196026790799785	0.2572048077819176	0.335660007062503	0.4929499784525637	0.3180058967124854	0.32333071265980806	0.5391280986216269	0.3577214366517606	0.27642056608487114	0.5479732723972797	0.38073165944761683
280	7.17948717948718	0.4170157709846134	0.7099978026590433	0.27885382524365987	0.38756510067016825	0.8907270807499699	0.7041777431856164	0.319678496923926	1.0445111914887906	1.1144700963513097	0.2762874193771554	0.8181919956488144	1.2056202094278134	0.36198941373272464	0.8256660155128626	1.1931241900098468	0.28955091096642993	1.170940428716842	1.1806779564881553	0.19240838315795086	0.7324087443332481	0.2597571920221915	0.15099481805645645	0.8794535610036924	0.6825223561072811	0.12082730610721021	1.0150798099094818	1.0881471705919477	0.12414714219759726	0.8100919788505248	1.162166477503851	0.05866350210487728	0.8845049542294634	1.1611754413467712	0.14209118981704066	1.101363554847234	1.1343265440579247	0.38097720240031374	0.5127609275402778	-0.3682751522704152	0.41514484802419194	0.3797061165910691	-0.6242218135935076	0.38965067446923185	0.3545157947118537	-0.4442376668641246	0.5411511553229834	0.5606051100095599	-0.2436508143078228	0.5055141750419307	0.5721356753843674	0.06675625307053278	0.37730870243827724	0.5218334522012413	0.2754543429345351	0.3261580117910475	0.487974660950576	0.3635105774019398	0.2991663164574935	0.5471445418441809	0.37987000028322027	0.2843310269472264	0.5775740317120875	0.3719867839920189	0.20209039856137068	0.5421910283148076	-0.29210126379963985	0.13827589149096176	0.5725948830734375	0.004909828195799896	0.23444795847904687	0.5195143562787057	0.2572778358226343	0.3357989156773229	0.4942490968119128	0.32235398360920897	0.3236003896252717	0.5387409138055077	0.3594978814633395	0.2764730247133693	0.5478209699775101	0.38087797613101754
281	7.205128205128205	0.4190103527420577	0.7143813516614784	0.2789669744924523	0.3877758966843819	0.8910182867083869	0.7046289600080176	0.3183206951056503	1.0508466789467277	1.1164168020464187	0.2773120482009523	0.8252477100511373	1.2078237975153068	0.36188640337759354	0.825210413153552	1.1931180191829114	0.2886058937681748	1.1760021898455526	1.1791240864089374	0.19248813865814723	0.7337288091347902	0.2620872668720966	0.1509949383967244	0.8794025456112986	0.6828365989766456	0.12081220944914779	1.0151806450989282	1.0881775707635946	0.12295702287137648	0.8093915048525517	1.1618323443743608	0.05866142520155049	0.8847359360887217	1.1612097334703826	0.14196145065408505	1.102231772687933	1.1344244593651989	0.38097676711166184	0.5128184746823885	-0.36832022940517317	0.4151375046751371	0.3796970431279698	-0.624143597830423	0.38963745444418085	0.35453947180527723	-0.44423581957034297	0.541175131424648	0.5605478697533962	-0.24366006636369503	0.5056404022041854	0.571835068169213	0.06701194495131903	0.3772738087396498	0.521831780083752	0.27547017760423337	0.32604755927186074	0.48823062995026545	0.36544163998906004	0.2992630831480442	0.5469071286640089	0.38030814458547046	0.2842636540608296	0.5781089575255249	0.3720098251774351	0.20368061061053788	0.5486435666581901	-0.2931585883793958	0.13845257295284685	0.5726012170053917	0.0035928969337435104	0.23456130207769216	0.5193616868436026	0.2573370447152069	0.336870910260935	0.4913506572203561	0.3259228191468529	0.3238204554092454	0.5374744872315269	0.36054770985544576	0.27645766901390134	0.547567482072885	0.38074378574300377
282	7.230769230769231	0.42015407417583994	0.7142885387477916	0.27903053514483706	0.38791948060162673	0.8911122104337297	0.7051237203930975	0.3180831319686313	1.0507417026128747	1.1167018451596054	0.2776141890145078	0.8249943391455448	1.2078327739673707	0.36192867175336196	0.824834472467364	1.1931552120260713	0.288465071119838	1.17456346613227	1.1785787663020302	0.1925256079622196	0.734521417057513	0.26342908192703096	0.15099276827407684	0.879415748033713	0.6829248958158218	0.120801031335043	1.015169623682405	1.0881870912387486	0.12091214404319651	0.8082989527010362	1.161345303964866	0.0586388967294376	0.884802462057963	1.1612215697037909	0.14202162469402344	1.1023234607047665	1.1347397500895227	0.38097814571757505	0.5128975220898722	-0.36835461786280344	0.41513364812298487	0.37973476174110166	-0.624087804083299	0.38961924439179013	0.35455939417107285	-0.4442398601410805	0.5412226217471587	0.5605351976861667	-0.24363910581750317	0.5057290913494091	0.5718118221456303	0.0682267962615489	0.37706586556252786	0.5217938878009143	0.2754490825353796	0.3260566719844717	0.4879266162243959	0.3655291374370102	0.29925903442787233	0.5468499451037085	0.38055048168240885	0.2841847728474288	0.5781428898999463	0.37201758474589075	0.20454221493142927	0.5523647058684709	-0.2937734333046075	0.13831705383480755	0.5721064573197462	0.003588382956937381	0.2346118889729708	0.51927414360262	0.25734532979953084	0.3375806371587244	0.4884380497606551	0.3247000410760422	0.3238572999911406	0.5363388174216255	0.3605146641130186	0.276430289813737	0.5475091120019826	0.38040438980418295
